<?xml version="1.0" ?>
<!-- Uploaded to: SVG Repo, www.svgrepo.com, Generator: SVG Repo Mixer Tools -->
<svg fill="#000000" width="800px" height="800px" viewBox="0 0 32 32" xmlns="http://www.w3.org/2000/svg">
<g data-name="28. Saving" id="_28._Saving">
<path d="M31.47,17.11a5,5,0,0,0-6.53.87l-3.2,3.65A4,4,0,0,0,18,19h-.93a2.54,2.54,0,0,1-1.41-.43A9.38,9.38,0,0,0,3.84,19.74L.29,23.29a1,1,0,0,0,1.42,1.42l3.55-3.55a7.35,7.35,0,0,1,9.29-.92,4.52,4.52,0,0,0,2.52.76H18a2,2,0,0,1,2,2H13a1,1,0,0,0,0,2h8a1,1,0,0,0,.74-.35h0l4.69-5.36a3,3,0,0,1,3-.92L22.4,27.8A3,3,0,0,1,20,29H11.41a4.4,4.4,0,0,0-3.12,1.29,1,1,0,0,0,0,1.42,1,1,0,0,0,1.42,0,2.37,2.37,0,0,1,1.7-.71H20a5,5,0,0,0,4-2l7.8-10.4a1.1,1.1,0,0,0,.15-.8A1.16,1.16,0,0,0,31.47,17.11Z"/>
<path d="M20,16a8,8,0,1,0-8-8A8,8,0,0,0,20,16ZM20,2a6,6,0,1,1-6,6A6,6,0,0,1,20,2Z"/>
<path d="M19.29,11.54a1,1,0,0,0,1.42,0l2.83-2.83a1,1,0,0,0,0-1.42L20.71,4.46a1,1,0,0,0-1.42,0L16.46,7.29a1,1,0,0,0,0,1.42ZM20,6.59,21.41,8,20,9.41,18.59,8Z"/>
<path d="M5,5H6V6A1,1,0,0,0,8,6V5H9A1,1,0,0,0,9,3H8V2A1,1,0,0,0,6,2V3H5A1,1,0,0,0,5,5Z"/>
</g>
</svg>