<?xml version="1.0" encoding="iso-8859-1"?>
<!-- Uploaded to: SVG Repo, www.svgrepo.com, Generator: SVG Repo Mixer Tools -->
<!DOCTYPE svg PUBLIC "-//W3C//DTD SVG 1.1//EN" "http://www.w3.org/Graphics/SVG/1.1/DTD/svg11.dtd">
<svg fill="#000000" version="1.1" id="Capa_1" xmlns="http://www.w3.org/2000/svg" xmlns:xlink="http://www.w3.org/1999/xlink" 
	 width="800px" height="800px" viewBox="0 0 27.32 27.32" xml:space="preserve"
	>
<g>
	<g>
		<path d="M1.29,25.669V25.64l4.825-9.713c0.116,0.032,0.237,0.058,0.364,0.058c0.193,0,0.375-0.045,0.54-0.118l4.248,4.521
			c-0.13,0.203-0.208,0.443-0.208,0.705c0,0.725,0.588,1.312,1.313,1.312s1.313-0.589,1.313-1.312c0-0.403-0.185-0.759-0.47-1
			l2.58-5.314h0.462v-0.16h-0.384l2.264-4.664c0.086,0.018,0.174,0.026,0.266,0.026c0.26,0,0.5-0.076,0.703-0.206l4.549,4.29
			c-0.105,0.188-0.17,0.401-0.17,0.634c0,0.725,0.588,1.312,1.312,1.312s1.312-0.588,1.312-1.312c0-0.725-0.588-1.313-1.312-1.313
			c-0.259,0-0.499,0.077-0.701,0.206l-4.55-4.289c0.104-0.189,0.169-0.402,0.169-0.633c0-0.727-0.587-1.315-1.312-1.315
			c-0.698,0-1.264,0.547-1.305,1.233h-0.021v0.161h0.021c0.021,0.368,0.195,0.694,0.461,0.919l-4.921,10.141
			c-0.085-0.019-0.175-0.027-0.266-0.027c-0.23,0-0.444,0.064-0.632,0.169L7.523,15.46c0.146-0.191,0.237-0.426,0.258-0.682h0.544
			v-0.16H7.787c-0.03-0.701-0.601-1.26-1.308-1.26c-0.708,0-1.279,0.559-1.308,1.26h-0.15v0.16h0.156
			c0.027,0.322,0.163,0.611,0.378,0.825l-2.687,5.407H2.377v0.162h0.411L1.29,24.189V0.364H0v26.592h27.32v-1.287H1.29z"/>
		<rect x="26.168" y="2.581" width="0.323" height="0.16"/>
		<rect x="18.238" y="2.581" width="0.66" height="0.16"/>
		<rect x="3.699" y="2.581" width="0.661" height="0.16"/>
		<rect x="19.561" y="2.581" width="0.66" height="0.16"/>
		<rect x="5.021" y="2.581" width="0.661" height="0.16"/>
		<rect x="14.273" y="2.581" width="0.66" height="0.16"/>
		<rect x="12.951" y="2.581" width="0.661" height="0.16"/>
		<rect x="16.916" y="2.581" width="0.661" height="0.16"/>
		<rect x="15.596" y="2.581" width="0.66" height="0.16"/>
		<rect x="2.376" y="2.581" width="0.662" height="0.16"/>
		<rect x="8.985" y="2.581" width="0.661" height="0.16"/>
		<rect x="24.846" y="2.581" width="0.661" height="0.16"/>
		<rect x="20.881" y="2.581" width="0.661" height="0.16"/>
		<rect x="11.628" y="2.581" width="0.662" height="0.16"/>
		<rect x="10.308" y="2.581" width="0.661" height="0.16"/>
		<rect x="22.203" y="2.581" width="0.66" height="0.16"/>
		<rect x="6.343" y="2.581" width="0.66" height="0.16"/>
		<rect x="23.525" y="2.581" width="0.66" height="0.16"/>
		<rect x="7.664" y="2.581" width="0.661" height="0.16"/>
		<rect x="1.394" y="2.581" width="0.323" height="0.16"/>
		<rect x="26.327" y="8.587" width="0.321" height="0.161"/>
		<rect x="23.684" y="8.587" width="0.662" height="0.161"/>
		<rect x="22.361" y="8.587" width="0.66" height="0.161"/>
		<rect x="7.823" y="8.587" width="0.661" height="0.161"/>
		<rect x="6.501" y="8.587" width="0.661" height="0.161"/>
		<rect x="10.466" y="8.587" width="0.66" height="0.161"/>
		<rect x="21.04" y="8.587" width="0.662" height="0.161"/>
		<rect x="11.787" y="8.587" width="0.662" height="0.161"/>
		<rect x="25.005" y="8.587" width="0.661" height="0.161"/>
		<rect x="9.144" y="8.587" width="0.661" height="0.161"/>
		<rect x="15.752" y="8.587" width="0.661" height="0.161"/>
		<rect x="2.535" y="8.587" width="0.662" height="0.161"/>
		<rect x="14.432" y="8.587" width="0.661" height="0.161"/>
		<rect x="13.11" y="8.587" width="0.661" height="0.161"/>
		<rect x="3.857" y="8.587" width="0.661" height="0.161"/>
		<rect x="19.718" y="8.587" width="0.661" height="0.161"/>
		<rect x="5.179" y="8.587" width="0.661" height="0.161"/>
		<rect x="1.552" y="8.587" width="0.322" height="0.161"/>
		<rect x="26.168" y="14.617" width="0.323" height="0.16"/>
		<rect x="11.628" y="14.617" width="0.662" height="0.16"/>
		<rect x="12.951" y="14.617" width="0.661" height="0.16"/>
		<rect x="14.273" y="14.617" width="0.66" height="0.16"/>
		<rect x="18.238" y="14.617" width="0.66" height="0.16"/>
		<rect x="22.203" y="14.617" width="0.66" height="0.16"/>
		<rect x="19.561" y="14.617" width="0.66" height="0.16"/>
		<rect x="10.308" y="14.617" width="0.661" height="0.16"/>
		<rect x="16.916" y="14.617" width="0.661" height="0.16"/>
		<rect x="20.881" y="14.617" width="0.661" height="0.16"/>
		<rect x="2.376" y="14.617" width="0.662" height="0.16"/>
		<rect x="3.699" y="14.617" width="0.661" height="0.16"/>
		<rect x="8.985" y="14.617" width="0.661" height="0.16"/>
		<rect x="1.394" y="14.617" width="0.323" height="0.16"/>
		<rect x="26.168" y="21.011" width="0.323" height="0.162"/>
		<rect x="3.699" y="21.011" width="0.661" height="0.162"/>
		<rect x="14.273" y="21.011" width="0.66" height="0.162"/>
		<rect x="10.308" y="21.011" width="0.661" height="0.162"/>
		<rect x="5.021" y="21.011" width="0.661" height="0.162"/>
		<rect x="6.343" y="21.011" width="0.661" height="0.162"/>
		<rect x="7.665" y="21.011" width="0.661" height="0.162"/>
		<rect x="15.596" y="21.011" width="0.66" height="0.162"/>
		<rect x="8.986" y="21.011" width="0.661" height="0.162"/>
		<rect x="22.204" y="21.011" width="0.659" height="0.162"/>
		<rect x="23.525" y="21.011" width="0.66" height="0.162"/>
		<rect x="24.848" y="21.011" width="0.66" height="0.162"/>
		<rect x="19.561" y="21.011" width="0.662" height="0.162"/>
		<rect x="18.238" y="21.011" width="0.66" height="0.162"/>
		<rect x="20.882" y="21.011" width="0.661" height="0.162"/>
		<rect x="16.917" y="21.011" width="0.662" height="0.162"/>
		<rect x="1.394" y="21.011" width="0.323" height="0.162"/>
	</g>
</g>
</svg>