<?xml version="1.0" ?>
<!-- Uploaded to: SVG Repo, www.svgrepo.com, Generator: SVG Repo Mixer Tools -->
<svg fill="#000000" width="800px" height="800px" viewBox="0 0 64 64" xmlns="http://www.w3.org/2000/svg">
<g data-name="Coin Trick Hand" id="Coin_Trick_Hand">
<path d="M52.7,42.89a3.71,3.71,0,0,0-.32-.8A3.18,3.18,0,0,0,48,40.91l-4.17,2.4a14.78,14.78,0,0,1-7.4,2,7.08,7.08,0,0,1-1.13-.09,4.48,4.48,0,0,1-.36-.4l-.32-.38h4.41a3.46,3.46,0,0,0,0-6.92H28.24a13.34,13.34,0,0,0-7.35-2.13H17a3.28,3.28,0,0,0-3.1-2.27H10.27A3.28,3.28,0,0,0,7,36.37V51.5a3.28,3.28,0,0,0,3.27,3.27h3.58A3.28,3.28,0,0,0,17,52.5h3a46.52,46.52,0,0,1,6.65.88,18.73,18.73,0,0,1,4.23,1.85,13.27,13.27,0,0,0,13.21,0l11.38-6.57a3.12,3.12,0,0,0,1.48-1.94,3.2,3.2,0,0,0-4.19-3.83ZM44.85,45,49,42.64a1.18,1.18,0,0,1,1.62.45,1.19,1.19,0,0,1,.15.84L48,45.52a14.78,14.78,0,0,1-7.4,2,7.56,7.56,0,0,1-2.17-.33A16.9,16.9,0,0,0,44.85,45Zm-31,7.73H10.27A1.27,1.27,0,0,1,9,51.5V36.37a1.27,1.27,0,0,1,1.27-1.27h3.58a1.27,1.27,0,0,1,1.27,1.27V51.5A1.27,1.27,0,0,1,13.85,52.77ZM55,46.21a1.18,1.18,0,0,1-.55.72L43,53.5a11.27,11.27,0,0,1-11.21,0,20.36,20.36,0,0,0-4.7-2,46.47,46.47,0,0,0-7.12-1H17.12V37.37h3.77a11.21,11.21,0,0,1,6.47,2,1.06,1.06,0,0,0,.57.17H39.05a1.46,1.46,0,0,1,0,2.92H28.1a1,1,0,0,0,0,2h4l1.35,1.65a9.31,9.31,0,0,0,7.23,3.43A16.83,16.83,0,0,0,49,47.25l4.17-2.41A1.21,1.21,0,0,1,55,46.21Z"/>
<path d="M46.68,7A10.33,10.33,0,0,0,37,13.89,10.31,10.31,0,1,0,41.05,26a10.17,10.17,0,0,0,5.63,1.69A10.32,10.32,0,0,0,46.68,7ZM37.2,28.4A8.32,8.32,0,1,1,36.46,16a10,10,0,0,0-.1,1.34,10.29,10.29,0,0,0,3,7.26A8.3,8.3,0,0,1,37.2,28.4Zm9.48-2.76a8.33,8.33,0,0,1-8.32-8.32,7.87,7.87,0,0,1,.13-1.38,1.13,1.13,0,0,0,.06-.36,8.32,8.32,0,1,1,8.13,10.06Z"/>
<path d="M46.68,13.82a3.55,3.55,0,0,0-4.3.55h0a3.55,3.55,0,0,0,0,5L45,22a2.43,2.43,0,0,0,1.7.7,2.39,2.39,0,0,0,1.7-.71l2.6-2.6a3.53,3.53,0,0,0,0-5A3.61,3.61,0,0,0,46.68,13.82ZM49.57,18,47,20.57a.41.41,0,0,1-.58,0L43.79,18a1.55,1.55,0,0,1,0-2.18,1.53,1.53,0,0,1,2.18,0,1,1,0,0,0,1.42,0,1.53,1.53,0,0,1,2.18,0A1.55,1.55,0,0,1,49.57,18Z"/>
<path d="M32.85,18a3.5,3.5,0,0,0-1.93.57l-.39-.38a2.51,2.51,0,0,0-1.79-.75h0A2.54,2.54,0,0,0,27,21.73l.38.38a3.55,3.55,0,0,0,3,5.48H34a2.41,2.41,0,0,0,2.41-2.41V21.5A3.55,3.55,0,0,0,32.85,18ZM34,25.59H30.3A1.55,1.55,0,0,1,28.76,24a1.57,1.57,0,0,1,.57-1.2,1,1,0,0,0,.37-.72,1,1,0,0,0-.29-.76l-1.05-1.05a.51.51,0,0,1-.15-.37.54.54,0,0,1,.15-.38h0a.57.57,0,0,1,.38-.16h0a.55.55,0,0,1,.38.16l1,1.05a1,1,0,0,0,1.49-.08,1.54,1.54,0,0,1,2.74,1v3.68A.41.41,0,0,1,34,25.59Z"/>
</g>
</svg>